<svg width="28" height="28" viewBox="0 0 28 28" fill="none" xmlns="http://www.w3.org/2000/svg">
<g id="Layer 2">
<g id="arrow-ios-back">
<path id="Vector" d="M16.135 22.1667C15.9608 22.1673 15.7885 22.1288 15.6311 22.0541C15.4736 21.9794 15.3349 21.8704 15.225 21.735L9.59005 14.735C9.41845 14.5263 9.32465 14.2644 9.32465 13.9942C9.32465 13.7239 9.41845 13.4621 9.59005 13.2533L15.4234 6.25334C15.6214 6.01509 15.906 5.86526 16.2145 5.83682C16.523 5.80837 16.8301 5.90364 17.0684 6.10167C17.3066 6.2997 17.4565 6.58426 17.4849 6.89276C17.5133 7.20126 17.4181 7.50842 17.22 7.74667L12.005 14L17.045 20.2533C17.1877 20.4246 17.2783 20.6331 17.3062 20.8543C17.3341 21.0754 17.298 21.2999 17.2023 21.5012C17.1065 21.7025 16.9551 21.8721 16.766 21.99C16.5769 22.108 16.3579 22.1693 16.135 22.1667Z" fill="black" fill-opacity="0.4"/>
</g>
</g>
</svg>
